<?xml version="1.0" standalone="no"?>
<!DOCTYPE svg PUBLIC "-//W3C//DTD SVG 20010904//EN"
 "http://www.w3.org/TR/2001/REC-SVG-20010904/DTD/svg10.dtd">
<svg version="1.0" xmlns="http://www.w3.org/2000/svg"
 width="700.000000pt" height="700.000000pt" viewBox="0 0 700.000000 700.000000"
 preserveAspectRatio="xMidYMid meet">
<metadata>
Created by potrace 1.14, written by Peter Selinger 2001-2017
</metadata>
<g transform="translate(0.000000,700.000000) scale(0.100000,-0.100000)"
fill="#000000" stroke="none">
<path d="M1668 6701 c-124 -40 -222 -123 -276 -234 -30 -62 -51 -161 -46 -214
10 -92 17 -119 51 -191 14 -29 14 -35 2 -43 -82 -50 -164 -153 -194 -243 -34
-103 -26 -234 21 -331 l24 -50 -28 -19 c-181 -128 -250 -360 -163 -550 l29
-64 -57 -45 c-166 -129 -220 -362 -126 -549 l24 -48 -27 -14 c-39 -21 -107
-89 -138 -137 -81 -128 -91 -295 -26 -427 25 -52 26 -54 7 -65 -37 -21 -109
-93 -140 -142 -84 -131 -94 -294 -27 -435 l22 -45 -28 -20 c-92 -67 -169 -178
-191 -276 -22 -95 -6 -220 39 -308 l19 -39 -37 -25 c-231 -154 -262 -486 -62
-686 31 -31 80 -68 110 -82 30 -15 159 -53 285 -85 127 -31 233 -62 236 -67 4
-5 3 -23 -2 -40 -5 -17 -8 -32 -6 -33 3 -3 351 -92 380 -98 12 -2 56 -14 97
-25 41 -11 217 -57 390 -101 338 -87 325 -84 385 -98 47 -12 549 -140 715
-183 63 -17 122 -32 130 -34 8 -2 78 -20 155 -40 77 -20 149 -38 160 -41 11
-2 126 -31 255 -64 129 -34 242 -62 251 -65 39 -9 190 -48 254 -65 124 -34
397 -101 399 -98 4 6 28 93 33 118 2 14 15 66 28 115 13 50 46 178 74 285 27
107 68 267 91 355 23 88 43 167 45 175 2 9 28 112 58 230 31 118 88 341 127
495 40 154 81 314 91 355 27 104 31 126 22 116 -50 -50 -288 -273 -297 -277
-6 -4 -238 -75 -516 -158 -278 -84 -540 -163 -584 -177 -43 -14 -82 -24 -86
-22 -8 3 -1 25 78 243 22 61 58 160 80 221 l40 111 -146 36 c-81 21 -298 76
-482 123 -184 48 -351 90 -370 94 -19 5 -192 49 -385 98 -192 50 -424 109
-515 132 -91 24 -167 44 -169 46 -8 7 52 234 61 234 4 0 50 -11 101 -24 50
-14 236 -61 412 -106 176 -45 448 -115 605 -155 157 -40 436 -111 621 -159
185 -47 340 -86 345 -86 5 0 38 81 74 181 l65 180 103 96 c108 101 110 106 46
118 -16 3 -63 14 -104 25 -41 12 -83 23 -93 25 -9 2 -99 25 -200 50 -100 26
-190 48 -199 50 -9 2 -50 13 -90 24 -40 11 -199 52 -353 91 -154 39 -314 81
-355 92 -41 11 -82 21 -90 23 -90 20 -694 175 -716 184 l-21 9 30 114 c16 62
30 114 32 116 1 2 56 -11 121 -28 66 -18 126 -33 134 -35 8 -2 94 -24 190 -48
96 -25 292 -75 435 -112 143 -36 328 -84 410 -105 83 -21 258 -66 390 -100
132 -34 291 -75 354 -91 63 -17 121 -32 130 -34 9 -2 71 -17 139 -34 68 -18
128 -28 135 -24 7 4 45 39 86 78 97 92 142 135 305 289 75 71 134 131 131 134
-3 3 -11 7 -18 8 -7 2 -46 12 -87 23 -41 11 -201 52 -355 91 -408 104 -593
152 -840 215 -121 31 -227 58 -235 60 -8 2 -69 18 -135 35 -66 18 -127 33
-135 35 -8 2 -44 11 -80 20 -36 9 -73 19 -83 20 -9 2 -21 6 -25 9 -5 3 -19 7
-33 9 -13 3 -53 13 -89 22 -36 9 -72 18 -80 20 -8 2 -53 13 -100 25 -47 12
-92 23 -100 25 -8 2 -78 20 -155 40 -77 20 -164 43 -193 50 -29 7 -55 15 -57
17 -3 2 0 21 6 42 6 21 12 47 14 58 2 11 6 27 9 36 3 9 10 37 16 60 8 32 15
42 26 38 12 -5 448 -118 504 -131 8 -1 211 -53 450 -115 239 -61 442 -113 450
-115 8 -2 35 -8 60 -15 25 -7 52 -14 60 -16 8 -2 69 -17 135 -34 295 -76 1174
-301 1200 -307 32 -7 39 -9 62 -17 30 -10 32 -8 219 170 88 83 177 168 198
188 22 20 41 42 43 49 1 7 19 75 39 152 19 77 37 147 39 155 2 8 17 67 34 130
79 303 113 437 117 455 2 11 6 32 9 47 6 27 0 32 -52 43 -10 2 -117 29 -238
60 -121 31 -317 81 -435 111 -118 30 -273 70 -345 89 -150 39 -723 185 -745
190 -8 2 -49 13 -90 24 -41 11 -219 56 -394 101 -175 44 -322 83 -326 85 -3 2
-17 6 -31 8 -13 3 -177 44 -364 92 -481 123 -529 135 -540 135 -6 0 -22 -47
-35 -105 -26 -107 -37 -130 -35 -72 3 98 -51 221 -133 304 -116 118 -290 163
-444 114z m205 -240 c74 -28 133 -122 125 -201 -4 -46 -20 -37 145 -79 43 -10
80 -21 82 -23 2 -2 -7 -46 -21 -98 -14 -52 -26 -99 -27 -105 -2 -5 -21 -81
-42 -167 -22 -87 -42 -158 -46 -158 -3 0 -6 13 -7 30 -1 54 -33 155 -65 209
-45 75 -126 145 -206 176 -114 45 -155 70 -186 114 -26 37 -30 51 -30 110 0
57 4 74 28 109 55 84 157 118 250 83z m-147 -644 c69 -36 113 -110 110 -189
l-1 -47 110 -26 c60 -15 113 -29 117 -31 4 -2 -2 -35 -12 -72 -23 -85 -100
-380 -106 -407 -2 -11 -8 -33 -13 -50 l-9 -30 -1 36 c-5 203 -127 367 -320
430 -84 27 -123 57 -150 112 -70 144 37 304 195 293 28 -2 64 -11 80 -19z
m809 -60 c53 -13 524 -134 715 -184 118 -30 222 -57 230 -59 8 -2 155 -39 325
-83 171 -43 418 -107 550 -141 132 -34 328 -84 435 -112 107 -27 202 -51 210
-53 75 -18 416 -107 418 -110 5 -5 -49 -218 -58 -228 -3 -4 -50 4 -104 18 -54
15 -105 28 -114 30 -9 2 -87 22 -172 44 -85 22 -261 67 -390 100 -129 33 -271
70 -315 82 -44 11 -87 22 -95 24 -8 2 -35 8 -60 15 -25 7 -52 13 -60 15 -8 2
-53 13 -100 25 -47 12 -92 23 -101 25 -9 2 -67 17 -130 34 -63 16 -220 57
-349 90 -307 78 -839 215 -875 225 -5 2 -27 6 -48 11 -20 4 -40 11 -43 16 -3
5 7 59 22 120 l27 111 31 -5 c17 -3 40 -7 51 -10z m-962 -580 c21 -12 51 -41
67 -66 29 -43 33 -60 32 -129 0 -30 3 -33 52 -47 28 -8 78 -20 111 -28 57 -12
60 -14 59 -42 -1 -17 -27 -127 -58 -245 -31 -118 -59 -230 -63 -247 -8 -49
-18 -40 -20 18 -5 182 -127 339 -313 403 -117 41 -171 105 -172 207 -3 154
167 253 305 176z m-167 -633 c22 -12 53 -41 72 -68 27 -41 32 -57 32 -106 l0
-57 83 -21 c45 -12 97 -25 115 -28 17 -4 32 -8 32 -11 0 -16 -133 -530 -139
-536 -4 -4 -7 3 -7 15 -2 102 -51 228 -117 300 -50 54 -127 103 -203 128 -138
46 -198 148 -158 267 41 123 173 176 290 117z m-161 -637 c62 -34 98 -95 103
-171 l4 -63 57 -13 c31 -6 82 -19 114 -28 51 -14 58 -18 52 -36 -3 -12 -33
-127 -66 -256 -34 -129 -64 -241 -68 -248 -5 -8 -8 5 -9 30 -4 101 -66 229
-149 305 -48 44 -119 83 -193 104 -61 18 -125 81 -140 139 -48 180 132 325
295 237z m-167 -631 c35 -18 80 -69 97 -110 7 -15 11 -50 11 -77 l-2 -48 113
-28 c77 -18 113 -32 113 -41 0 -8 -25 -111 -56 -230 -31 -120 -58 -226 -60
-237 -2 -11 -8 -33 -13 -50 -9 -29 -9 -28 -10 15 -2 95 -48 208 -117 289 -43
50 -119 98 -202 128 -85 31 -129 65 -153 117 -45 99 -11 207 81 263 48 29 60
32 111 28 32 -2 71 -11 87 -19z m-140 -653 c55 -41 82 -92 85 -159 l2 -59 50
-13 c28 -6 59 -14 70 -16 11 -2 40 -10 63 -17 38 -11 42 -15 38 -38 -12 -63
-135 -524 -136 -511 -1 8 -4 33 -6 55 -7 75 -45 165 -92 223 -74 91 -102 111
-253 175 -74 32 -97 53 -124 110 -33 70 -21 162 28 217 72 81 191 95 275 33z
m929 -309 c142 -36 265 -67 273 -69 8 -2 76 -19 150 -38 147 -39 686 -177 710
-182 8 -2 132 -34 275 -70 143 -37 267 -69 275 -71 8 -2 33 -8 55 -14 22 -6
49 -13 60 -15 104 -24 879 -226 883 -229 4 -4 -46 -225 -53 -234 -1 -1 -44 9
-96 22 -52 13 -220 56 -374 96 -154 39 -404 103 -555 142 -151 38 -282 71
-290 73 -8 2 -94 23 -190 48 -356 93 -535 139 -550 142 -8 2 -195 49 -415 106
-220 56 -420 107 -445 112 -25 6 -47 12 -49 13 -9 7 55 234 66 234 7 0 128
-30 270 -66z m-1091 -328 c46 -31 78 -93 82 -160 l4 -62 110 -27 c61 -15 112
-28 114 -30 2 -1 -6 -39 -18 -82 -11 -44 -21 -87 -23 -95 -3 -20 2 -21 -255
44 -250 63 -278 77 -317 157 -42 87 -9 209 71 259 69 42 163 41 232 -4z"/>
<path d="M6297 4860 c-37 -34 -67 -65 -67 -69 1 -8 48 -60 224 -245 83 -87
161 -170 172 -184 12 -13 26 -23 32 -21 6 2 38 30 72 62 54 51 60 60 48 75
-17 23 -13 18 -174 188 -77 82 -163 173 -191 203 l-50 54 -66 -63z"/>
<path d="M5997 4576 c-44 -41 -298 -280 -377 -356 -41 -39 -308 -291 -349
-330 -15 -14 -99 -93 -186 -176 -88 -84 -178 -168 -200 -189 -22 -20 -105 -99
-185 -175 -80 -75 -161 -153 -181 -171 -20 -19 -74 -69 -119 -112 l-82 -78 23
-27 c13 -14 29 -31 34 -37 6 -7 67 -72 137 -146 70 -74 151 -160 180 -192 l53
-58 42 38 c22 21 110 104 194 184 137 129 207 196 338 319 217 204 322 303
366 345 45 44 248 234 354 334 20 19 101 96 181 172 80 75 169 160 198 187 28
27 52 53 52 57 0 4 -35 44 -79 89 -43 44 -105 110 -139 146 -33 36 -93 100
-134 142 l-73 78 -48 -44z"/>
<path d="M4185 2751 c-3 -6 -19 -48 -35 -94 -16 -45 -54 -149 -84 -232 -31
-82 -56 -153 -56 -156 0 -4 113 28 250 69 138 41 249 79 248 83 -2 4 -59 67
-127 138 -68 72 -138 147 -156 167 -20 22 -35 31 -40 25z"/>
</g>
</svg>
